<svg width="50" height="56" viewBox="0 0 50 56" fill="none" xmlns="http://www.w3.org/2000/svg">
<g clip-path="url(#clip0_54_91)">
<path d="M49.9158 16.4213C49.9154 15.4821 49.7137 14.6522 49.3057 13.94C48.9049 13.2396 48.3047 12.6526 47.4996 12.1884C40.8541 8.37363 34.2022 4.57049 27.5588 0.751795C25.7678 -0.277594 24.0313 -0.240066 22.2535 0.804101C19.6084 2.35713 6.36523 9.91071 2.41895 12.1863C0.79375 13.1229 0.00292969 14.5564 0.00253906 16.4195C0 24.0914 0.00253906 31.763 0 39.435C0 40.3535 0.193555 41.1673 0.583594 41.8688C0.98457 42.5904 1.59316 43.1936 2.4168 43.6682C6.36328 45.9438 19.6082 53.4968 22.2527 55.0502C24.0313 56.095 25.7678 56.1323 27.5594 55.1025C34.2029 51.2836 40.8553 47.4807 47.5018 43.6659C48.3254 43.1914 48.934 42.5879 49.335 41.8669C49.7244 41.1653 49.9184 40.3516 49.9184 39.4328C49.9184 39.4328 49.9184 24.0933 49.9158 16.4213Z" fill="#A179DC"/>
<path d="M25.0356 27.8525L0.583618 41.8689C0.984595 42.5905 1.59319 43.1936 2.41682 43.6683C6.36331 45.9438 19.6082 53.4968 22.2528 55.0503C24.0313 56.095 25.7678 56.1323 27.5594 55.1026C34.203 51.2837 40.8553 47.4807 47.5018 43.6659C48.3254 43.1915 48.934 42.5879 49.335 41.8669L25.0356 27.8525Z" fill="#280068"/>
<path d="M49.9158 16.4212C49.9154 15.4821 49.7136 14.6522 49.3056 13.9399L25.0355 27.8524L49.3349 41.8668C49.7244 41.1653 49.9179 40.3515 49.9183 39.4328C49.9183 39.4328 49.9183 24.0932 49.9158 16.4212Z" fill="#390091"/>
<path d="M39.4321 22.6128V25.2327H42.0637V22.6128H43.3795V25.2327H46.0111V26.5426H43.3795V29.1625H46.0111V30.4724H43.3795V33.0923H42.0637V30.4724H39.4321V33.0923H38.1163V30.4724H35.4847V29.1625H38.1163V26.5426H35.4847V25.2327H38.1163V22.6128H39.4321ZM42.0637 26.5426H39.4321V29.1625H42.0637V26.5426Z" fill="white"/>
<path d="M25.0892 9.45508C31.9532 9.45508 37.9461 13.1663 41.156 18.6826L41.1247 18.6295L33.0488 23.2589C31.4576 20.5768 28.5407 18.7669 25.1946 18.7296L25.0892 18.729C19.9866 18.729 15.8498 22.8472 15.8498 27.9272C15.8498 29.5884 16.2946 31.1457 17.0683 32.4907C18.6609 35.2587 21.6548 37.1256 25.0892 37.1256C28.5448 37.1256 31.5558 35.2349 33.1403 32.4374L33.1018 32.5045L41.1656 37.1553C37.9909 42.6249 32.0801 46.3247 25.2959 46.3984L25.0892 46.3995C18.2036 46.3995 12.1937 42.6654 8.99185 37.1199C7.42877 34.4127 6.53442 31.2741 6.53442 27.9272C6.53442 17.7255 14.8415 9.45508 25.0892 9.45508Z" fill="white"/>
</g>
<defs>
<clipPath id="clip0_54_91">
<rect width="50" height="56" fill="white"/>
</clipPath>
</defs>
</svg>
