<svg width="52" height="51" viewBox="0 0 52 51" fill="none" xmlns="http://www.w3.org/2000/svg">
<path fill-rule="evenodd" clip-rule="evenodd" d="M26 0.282185C11.635 0.282185 0 11.9172 0 26.2822C0 37.7872 7.4425 47.5047 17.7775 50.9497C19.0775 51.1772 19.565 50.3972 19.565 49.7147C19.565 49.0972 19.5325 47.0497 19.5325 44.8722C13 46.0747 11.31 43.2797 10.79 41.8172C10.4975 41.0697 9.23 38.7622 8.125 38.1447C7.215 37.6572 5.915 36.4547 8.0925 36.4222C10.14 36.3897 11.6025 38.3072 12.09 39.0872C14.43 43.0197 18.1675 41.9147 19.6625 41.2322C19.89 39.5422 20.5725 38.4047 21.32 37.7547C15.535 37.1047 9.49 34.8622 9.49 24.9172C9.49 22.0897 10.4975 19.7497 12.155 17.9297C11.895 17.2797 10.985 14.6147 12.415 11.0397C12.415 11.0397 14.5925 10.3572 19.565 13.7047C21.645 13.1197 23.855 12.8272 26.065 12.8272C28.275 12.8272 30.485 13.1197 32.565 13.7047C37.5375 10.3247 39.715 11.0397 39.715 11.0397C41.145 14.6147 40.235 17.2797 39.975 17.9297C41.6325 19.7497 42.64 22.0572 42.64 24.9172C42.64 34.8947 36.5625 37.1047 30.7775 37.7547C31.72 38.5672 32.5325 40.1272 32.5325 42.5647C32.5325 46.0422 32.5 48.8372 32.5 49.7147C32.5 50.3972 32.9875 51.2097 34.2875 50.9497C44.5575 47.5047 52 37.7547 52 26.2822C52 11.9172 40.365 0.282185 26 0.282185Z" fill="white"/>
</svg>
