<svg width="57" height="51" viewBox="0 0 57 51" fill="none" xmlns="http://www.w3.org/2000/svg">
<path d="M7.43133 0.315396C4.945 1.78368 0.0464603 7.38073 0 8.84856V11.2782C0 14.358 2.89448 17.065 5.52251 17.065C8.67809 17.065 11.3073 14.4639 11.3075 11.3766C11.3075 14.4639 13.8466 17.065 17.0024 17.065C20.1584 17.065 22.616 14.4639 22.616 11.3766C22.616 14.4639 25.3158 17.065 28.4716 17.065H28.5287C31.6848 17.065 34.3846 14.4639 34.3846 11.3766C34.3846 14.4639 36.8423 17.065 39.9979 17.065C43.1537 17.065 45.6928 14.4639 45.6928 11.3766C45.6928 14.4639 48.3224 17.065 51.4778 17.065C54.1058 17.065 57.0003 14.3585 57.0003 11.2782V8.84856C56.9538 7.3805 52.0553 1.78322 49.5694 0.315396C41.8417 0.0455364 36.4844 -0.00113459 28.4999 2.06288e-05C20.5157 0.000713762 9.63053 0.124785 7.43086 0.315396H7.43133ZM22.576 15.6145C22.2743 16.1376 21.9005 16.6163 21.4656 17.0365C20.2744 18.195 18.6415 18.9131 16.8414 18.9131C15.1092 18.9147 13.4454 18.2406 12.2074 17.0356C11.7758 16.6151 11.4478 16.1655 11.1475 15.642L11.1461 15.6429C10.8459 16.1673 10.4278 16.6167 9.99524 17.0377C8.75677 18.2418 7.0932 18.9153 5.36129 18.9138C5.14432 18.9138 4.91852 18.8542 4.73593 18.7918C4.48226 21.4192 4.37517 23.9302 4.3373 25.761L4.33684 25.7714C4.33219 26.7011 4.32755 27.4656 4.3229 28.5278C4.37168 34.0405 3.77397 46.3953 6.76671 49.431C11.4044 50.5065 19.9382 50.9964 28.4997 50.9994H28.5011C37.0623 50.9964 45.5962 50.5065 50.2338 49.431C53.2266 46.3951 52.6289 34.0402 52.6776 28.5275C52.6725 27.4656 52.6683 26.7011 52.6637 25.7712L52.663 25.7608C52.6254 23.9295 52.5183 21.4188 52.2646 18.7913C52.082 18.8537 51.8565 18.9133 51.6392 18.9133C49.9073 18.9148 48.2438 18.2413 47.0053 17.0372C46.5727 16.6163 46.1546 16.1671 45.8542 15.6424L45.8528 15.6415C45.5522 16.165 45.2245 16.6149 44.7929 17.0351C43.5549 18.2401 41.8912 18.9141 40.1591 18.9124C38.3593 18.9124 36.7262 18.1938 35.5349 17.0356C35.1 16.6153 34.7263 16.1367 34.4245 15.6135C34.126 16.1361 33.7557 16.6147 33.3244 17.0356C32.0861 18.2404 30.4222 18.9143 28.6899 18.9126C28.6272 18.9126 28.5645 18.9098 28.5018 18.908H28.5002C28.4374 18.9098 28.3747 18.9126 28.3113 18.9126C26.5791 18.9143 24.9152 18.2405 23.6769 17.0358C23.2455 16.615 22.8752 16.1363 22.5767 15.6138L22.576 15.6145ZM17.8171 21.7348L17.8166 21.7371H17.8201C19.7047 21.7411 21.3789 21.7371 23.4534 23.9889C25.086 23.8186 26.792 23.7336 28.4995 23.7361H28.5008C30.2083 23.7338 31.9143 23.8186 33.5471 23.9889C35.6216 21.7369 37.2958 21.7408 39.1804 21.7371H39.1837L39.1832 21.7348C40.0736 21.7348 43.6355 21.7348 46.1174 28.6678L48.7833 38.1787C50.7588 45.2542 48.1508 45.4273 44.8976 45.4335C40.0732 45.2549 37.4019 41.7703 37.4019 38.2861C34.7314 38.7214 31.616 38.9391 28.5006 38.9393H28.4992C25.3836 38.9393 22.2682 38.7214 19.5979 38.2861C19.5979 41.7703 16.9264 45.2549 12.1022 45.4335C8.84906 45.4273 6.24125 45.2544 8.21674 38.1787L10.8833 28.668C13.3652 21.7351 16.9271 21.7351 17.8175 21.7351L17.8171 21.7348ZM28.4995 27.1833V27.1847C28.4948 27.1893 23.4206 31.8241 22.5084 33.4726L25.8312 33.3402V36.2222C25.8312 36.3572 27.1646 36.3022 28.4995 36.2407H28.5008C29.8352 36.3022 31.1688 36.3572 31.1688 36.2222V33.3402L34.4917 33.4726C33.5792 31.8241 28.5006 27.1847 28.5006 27.1847V27.1833L28.4999 27.1838L28.4995 27.1833Z" fill="white"/>
</svg>
