<svg width="50" height="50" viewBox="0 0 50 50" fill="none" xmlns="http://www.w3.org/2000/svg">
<path d="M39.5836 -0.000644684H10.417C4.66489 -0.000644684 0.000305176 4.66394 0.000305176 10.416V39.5827C0.000305176 45.3348 4.66489 49.9994 10.417 49.9994H39.5836C45.3378 49.9994 50.0003 45.3348 50.0003 39.5827V10.416C50.0003 4.66394 45.3378 -0.000644684 39.5836 -0.000644684ZM16.667 39.5827H10.417V16.666H16.667V39.5827ZM13.542 14.0244C11.5295 14.0244 9.89614 12.3785 9.89614 10.3494C9.89614 8.32019 11.5295 6.67436 13.542 6.67436C15.5545 6.67436 17.1878 8.32019 17.1878 10.3494C17.1878 12.3785 15.5566 14.0244 13.542 14.0244ZM41.667 39.5827H35.417V27.9077C35.417 20.891 27.0836 21.4223 27.0836 27.9077V39.5827H20.8336V16.666H27.0836V20.3431C29.992 14.9556 41.667 14.5577 41.667 25.5014V39.5827Z" fill="white"/>
</svg>
