<svg width="661" height="479" viewBox="0 0 661 479" fill="none" xmlns="http://www.w3.org/2000/svg">
    <g clip-path="url(#clip0_6_312)">
        <path d="M421.222 359.091V474.559H131.858C98.8892 474.559 72.0652 448.659 72.0652 416.825C72.0652 384.992 98.8892 359.091 131.858 359.091H421.222Z"
              fill="#F2F2F2"/>
        <path d="M428.33 473.671C428.33 474.848 427.861 475.978 427.028 476.81C426.195 477.643 425.066 478.111 423.888 478.112H126.704C110.564 478.112 95.0842 471.702 83.671 460.291C72.2579 448.881 65.8461 433.406 65.8461 417.269C65.8461 401.133 72.2579 385.657 83.671 374.247C95.0842 362.837 110.564 356.427 126.704 356.427H423.888C425.066 356.427 426.196 356.895 427.029 357.728C427.862 358.56 428.33 359.69 428.33 360.868C428.33 362.046 427.862 363.175 427.029 364.008C426.196 364.841 425.066 365.309 423.888 365.309H126.704C112.92 365.309 99.7002 370.783 89.9532 380.528C80.2063 390.272 74.7305 403.489 74.7305 417.269C74.7305 431.05 80.2063 444.266 89.9532 454.011C99.7002 463.755 112.92 469.23 126.704 469.23H423.888C425.066 469.23 426.195 469.698 427.028 470.531C427.861 471.364 428.33 472.493 428.33 473.671Z"
              fill="#EEE066"/>
        <path d="M421.222 385.738H110.268C110.032 385.738 109.806 385.644 109.64 385.478C109.473 385.311 109.38 385.085 109.38 384.85C109.38 384.614 109.473 384.388 109.64 384.222C109.806 384.055 110.032 383.961 110.268 383.961H421.222C421.458 383.961 421.684 384.055 421.851 384.222C422.017 384.388 422.111 384.614 422.111 384.85C422.111 385.085 422.017 385.311 421.851 385.478C421.684 385.644 421.458 385.738 421.222 385.738Z"
              fill="#CCCCCC"/>
        <path d="M421.222 407.055H110.268C110.032 407.055 109.806 406.961 109.64 406.795C109.473 406.628 109.38 406.402 109.38 406.167C109.38 405.931 109.473 405.705 109.64 405.539C109.806 405.372 110.032 405.278 110.268 405.278H421.222C421.458 405.278 421.684 405.372 421.851 405.539C422.017 405.705 422.111 405.931 422.111 406.167C422.111 406.402 422.017 406.628 421.851 406.795C421.684 406.961 421.458 407.055 421.222 407.055Z"
              fill="#CCCCCC"/>
        <path d="M421.222 428.372H110.268C110.032 428.372 109.806 428.278 109.64 428.112C109.473 427.945 109.38 427.719 109.38 427.484C109.38 427.248 109.473 427.022 109.64 426.856C109.806 426.689 110.032 426.596 110.268 426.596H421.222C421.458 426.596 421.684 426.689 421.851 426.856C422.017 427.022 422.111 427.248 422.111 427.484C422.111 427.719 422.017 427.945 421.851 428.112C421.684 428.278 421.458 428.372 421.222 428.372Z"
              fill="#CCCCCC"/>
        <path d="M421.222 449.689H110.268C110.032 449.689 109.806 449.595 109.64 449.429C109.473 449.262 109.38 449.036 109.38 448.801C109.38 448.565 109.473 448.339 109.64 448.173C109.806 448.006 110.032 447.913 110.268 447.913H421.222C421.458 447.913 421.684 448.006 421.851 448.173C422.017 448.339 422.111 448.565 422.111 448.801C422.111 449.036 422.017 449.262 421.851 449.429C421.684 449.595 421.458 449.689 421.222 449.689Z"
              fill="#CCCCCC"/>
        <path d="M644.858 380.827L572.393 470.739L347.071 289.233C321.398 268.553 316.766 231.559 336.744 206.771C356.722 181.983 393.864 178.64 419.536 199.321L644.858 380.827Z"
              fill="#F2F2F2"/>
        <path d="M578.485 474.506C577.745 475.422 576.672 476.008 575.501 476.134C574.33 476.26 573.156 475.916 572.239 475.177L340.828 288.766C328.259 278.642 320.229 263.941 318.502 247.897C316.776 231.853 321.495 215.781 331.622 203.216C341.749 190.651 356.454 182.622 372.502 180.896C388.55 179.17 404.627 183.888 417.195 194.013L648.606 380.424C649.061 380.79 649.439 381.241 649.719 381.753C649.999 382.265 650.175 382.827 650.238 383.407C650.3 383.987 650.248 384.574 650.084 385.134C649.919 385.694 649.646 386.216 649.28 386.67C648.914 387.124 648.462 387.502 647.95 387.782C647.437 388.061 646.875 388.237 646.295 388.299C645.715 388.362 645.128 388.309 644.568 388.144C644.008 387.98 643.486 387.706 643.032 387.34L411.621 200.929C406.307 196.645 400.2 193.449 393.65 191.525C387.1 189.6 380.235 188.985 373.447 189.713C366.659 190.442 360.081 192.501 354.089 195.771C348.097 199.042 342.808 203.461 338.525 208.776C334.241 214.09 331.047 220.197 329.125 226.746C327.202 233.295 326.589 240.158 327.321 246.944C328.053 253.73 330.114 260.306 333.388 266.295C336.662 272.284 341.084 277.57 346.402 281.85L577.813 468.261C578.73 469 579.316 470.073 579.442 471.244C579.568 472.415 579.224 473.588 578.485 474.506Z"
              fill="#CCCCCC"/>
        <path d="M628.136 401.576L386.002 206.527C385.911 206.454 385.835 206.363 385.779 206.261C385.723 206.159 385.688 206.046 385.676 205.93C385.663 205.814 385.674 205.697 385.707 205.585C385.74 205.473 385.794 205.369 385.867 205.278C385.94 205.187 386.031 205.112 386.133 205.056C386.236 205 386.348 204.965 386.464 204.952C386.58 204.94 386.697 204.95 386.809 204.983C386.921 205.016 387.026 205.07 387.117 205.144L629.251 400.193C629.342 400.266 629.417 400.356 629.473 400.458C629.529 400.561 629.565 400.673 629.577 400.789C629.59 400.905 629.579 401.023 629.547 401.135C629.514 401.247 629.459 401.351 629.386 401.442C629.312 401.533 629.222 401.609 629.12 401.665C629.017 401.721 628.905 401.756 628.788 401.768C628.672 401.78 628.555 401.77 628.443 401.737C628.331 401.704 628.227 401.649 628.136 401.576Z"
              fill="#CCCCCC"/>
        <path d="M614.757 418.175L372.623 223.126C372.44 222.978 372.323 222.764 372.298 222.53C372.273 222.296 372.342 222.061 372.49 221.878C372.638 221.695 372.852 221.577 373.086 221.552C373.32 221.527 373.555 221.595 373.738 221.743L615.872 416.792C615.963 416.865 616.039 416.955 616.095 417.058C616.151 417.16 616.186 417.272 616.199 417.388C616.211 417.505 616.201 417.622 616.168 417.734C616.135 417.846 616.081 417.95 616.007 418.041C615.934 418.132 615.844 418.208 615.741 418.264C615.639 418.32 615.526 418.355 615.41 418.367C615.294 418.38 615.177 418.369 615.065 418.336C614.953 418.303 614.848 418.248 614.757 418.175Z"
              fill="#CCCCCC"/>
        <path d="M601.379 434.774L359.245 239.725C359.062 239.577 358.944 239.363 358.919 239.129C358.894 238.894 358.963 238.66 359.111 238.476C359.259 238.293 359.473 238.176 359.708 238.15C359.942 238.125 360.177 238.194 360.36 238.342L602.494 433.391C602.585 433.464 602.66 433.554 602.716 433.657C602.772 433.759 602.807 433.872 602.82 433.987C602.832 434.103 602.822 434.221 602.789 434.333C602.756 434.445 602.702 434.549 602.628 434.64C602.555 434.731 602.465 434.806 602.362 434.862C602.26 434.918 602.148 434.953 602.032 434.966C601.916 434.978 601.798 434.968 601.686 434.935C601.574 434.902 601.47 434.847 601.379 434.774Z"
              fill="#CCCCCC"/>
        <path d="M588.001 451.373L345.867 256.325C345.776 256.251 345.701 256.161 345.645 256.059C345.589 255.956 345.553 255.844 345.541 255.728C345.529 255.612 345.539 255.495 345.572 255.383C345.605 255.271 345.659 255.166 345.733 255.076C345.806 254.985 345.896 254.909 345.999 254.853C346.101 254.797 346.213 254.762 346.329 254.75C346.445 254.737 346.563 254.748 346.675 254.781C346.787 254.813 346.891 254.868 346.982 254.941L589.116 449.99C589.207 450.063 589.282 450.154 589.339 450.256C589.395 450.358 589.43 450.471 589.442 450.587C589.455 450.703 589.445 450.82 589.412 450.932C589.379 451.044 589.324 451.149 589.251 451.24C589.178 451.331 589.087 451.406 588.985 451.462C588.882 451.518 588.77 451.553 588.654 451.566C588.538 451.578 588.42 451.567 588.308 451.534C588.196 451.501 588.092 451.447 588.001 451.373Z"
              fill="#CCCCCC"/>
        <path d="M660.112 479H0.888441C0.652812 479 0.426833 478.906 0.260218 478.74C0.0936026 478.573 0 478.347 0 478.112C0 477.876 0.0936026 477.65 0.260218 477.484C0.426833 477.317 0.652812 477.224 0.888441 477.224H660.112C660.347 477.224 660.573 477.317 660.74 477.484C660.906 477.65 661 477.876 661 478.112C661 478.347 660.906 478.573 660.74 478.74C660.573 478.906 660.347 479 660.112 479Z"
              fill="#CCCCCC"/>
        <path d="M300.365 346.955L290.208 346.954L285.378 307.787L300.369 307.789L300.365 346.955Z" fill="#FFB8B8"/>
        <path d="M282.953 344.053H302.541V356.383H270.62C270.62 354.764 270.938 353.16 271.558 351.664C272.178 350.168 273.087 348.809 274.232 347.664C275.377 346.519 276.737 345.611 278.233 344.991C279.729 344.372 281.333 344.053 282.953 344.053Z"
              fill="#2F2E41"/>
        <path d="M196.6 346.955L186.443 346.954L181.612 307.787L196.603 307.789L196.6 346.955Z" fill="#FFB8B8"/>
        <path d="M179.188 344.053H198.776V356.383H166.854C166.854 354.764 167.174 353.16 167.793 351.664C168.413 350.168 169.322 348.809 170.467 347.664C171.612 346.519 172.972 345.611 174.468 344.991C175.964 344.372 177.568 344.053 179.188 344.053Z"
              fill="#2F2E41"/>
        <path d="M230.525 56.4308V51.9897C230.525 44.3926 233.543 37.1067 238.917 31.7347C244.29 26.3628 251.578 23.3448 259.177 23.3448C266.776 23.3448 274.064 26.3628 279.437 31.7347C284.81 37.1067 287.829 44.3926 287.829 51.9897V56.4308C287.829 61.9077 285.653 67.1604 281.779 71.0332C277.905 74.906 272.651 77.0817 267.173 77.0817H251.181C248.468 77.0817 245.782 76.5476 243.276 75.5098C240.77 74.472 238.493 72.9508 236.575 71.0332C234.657 69.1156 233.135 66.839 232.097 64.3336C231.059 61.8281 230.525 59.1427 230.525 56.4308Z"
              fill="#2F2E41"/>
        <path d="M259.177 78.6098C271.228 78.6098 280.998 68.8428 280.998 56.7945C280.998 44.7461 271.228 34.9791 259.177 34.9791C247.125 34.9791 237.356 44.7461 237.356 56.7945C237.356 68.8428 247.125 78.6098 259.177 78.6098Z"
              fill="#FFB8B8"/>
        <path d="M140.484 131.771C141.37 130.935 142.428 130.304 143.584 129.921C144.74 129.538 145.966 129.413 147.176 129.555C148.385 129.697 149.549 130.102 150.585 130.743C151.621 131.383 152.504 132.243 153.171 133.261L171.877 129.724L176.8 140.564L150.314 145.188C148.528 146.196 146.435 146.514 144.43 146.082C142.426 145.65 140.649 144.498 139.438 142.845C138.226 141.191 137.664 139.15 137.856 137.109C138.049 135.068 138.984 133.169 140.484 131.771Z"
              fill="#FFB8B8"/>
        <path d="M242.409 92.719L211.735 112.921L159.976 129.444C159.29 129.665 158.701 130.116 158.311 130.722C157.92 131.327 157.751 132.049 157.833 132.765L158.962 142.488C159.012 142.918 159.152 143.333 159.372 143.706C159.592 144.08 159.887 144.403 160.239 144.655C160.591 144.908 160.993 145.084 161.417 145.172C161.841 145.261 162.279 145.26 162.703 145.169L211.416 134.73C213.773 134.228 216.002 133.246 217.965 131.847L252.426 107.335C253.675 106.442 254.672 105.24 255.319 103.848C255.966 102.455 256.242 100.919 256.12 99.3881C255.994 97.8552 255.47 96.3816 254.601 95.1123C253.733 93.843 252.548 92.8216 251.165 92.1487C249.781 91.4758 248.247 91.1746 246.711 91.2745C245.176 91.3745 243.694 91.8723 242.409 92.719Z"
              fill="#CCCCCC"/>
        <path d="M290.39 335.84C289.61 335.841 288.847 335.614 288.195 335.188C287.542 334.762 287.027 334.155 286.714 333.441L240.15 218.417C240.042 218.167 239.859 217.957 239.627 217.815C239.396 217.672 239.126 217.604 238.854 217.619C238.582 217.634 238.322 217.732 238.107 217.9C237.893 218.068 237.735 218.297 237.655 218.558L199.667 330.538C199.507 331.059 199.241 331.542 198.887 331.956C198.533 332.371 198.098 332.709 197.609 332.95C197.12 333.19 196.586 333.328 196.041 333.355C195.497 333.382 194.952 333.297 194.442 333.106L181.703 328.33C181.011 328.073 180.405 327.629 179.95 327.048C179.496 326.467 179.212 325.772 179.129 325.039C173.398 275.129 223.373 149.147 223.879 147.881L224.019 147.53L269.575 157.604L269.67 157.708C287.846 177.531 302.786 302.559 305.596 327.422C305.701 328.32 305.496 329.227 305.016 329.993C304.537 330.759 303.81 331.339 302.956 331.638L291.712 335.613C291.287 335.764 290.84 335.84 290.39 335.84Z"
              fill="#2F2E41"/>
        <path d="M251.138 161.659C240.1 161.659 227.795 159.459 224.007 150.379L223.92 150.17L224.037 149.977C227.027 145.072 230.979 136.706 228.855 135.136C224.671 132.043 222.641 126.955 222.821 120.014C223.212 104.944 233.483 91.5654 248.378 86.7214C252.535 85.3912 256.767 84.3021 261.05 83.4596C264.172 82.8297 267.396 82.899 270.488 83.6625C273.581 84.426 276.466 85.8648 278.936 87.8755C281.438 89.8994 283.46 92.452 284.857 95.3501C286.254 98.2481 286.992 101.42 287.018 104.637C287.174 120.741 284.694 143.17 271.992 158.569C271.397 159.283 270.568 159.765 269.653 159.929C263.542 161.034 257.348 161.613 251.138 161.659Z"
              fill="#CCCCCC"/>
        <path d="M247.032 161.056C247.633 158.902 249.059 157.072 251.002 155.964C252.945 154.855 255.247 154.558 257.408 155.137C257.849 155.261 258.279 155.42 258.694 155.614L272.897 142.691L282.775 149.344L262.464 167.313C261.546 168.967 260.102 170.266 258.362 171.004C256.621 171.742 254.683 171.877 252.857 171.387C251.793 171.096 250.797 170.597 249.927 169.919C249.057 169.241 248.331 168.397 247.789 167.436C247.247 166.476 246.902 165.417 246.772 164.322C246.642 163.227 246.73 162.117 247.032 161.056Z"
              fill="#FFB8B8"/>
        <path d="M270.647 161.221C269.726 161.221 268.832 160.903 268.119 160.319L262.518 155.743C262.051 155.362 261.677 154.879 261.423 154.333C261.168 153.786 261.041 153.189 261.051 152.586C261.06 151.984 261.205 151.391 261.476 150.852C261.747 150.314 262.137 149.843 262.615 149.477L286.107 131.464C286.385 131.249 286.568 130.934 286.615 130.585C286.662 130.237 286.57 129.884 286.359 129.603L271.859 110.439C270.175 108.22 269.33 105.476 269.474 102.694C269.618 99.9123 270.742 97.2709 272.648 95.2379C274.654 93.0715 277.402 91.7383 280.346 91.5029C283.29 91.2675 286.214 92.1471 288.54 93.9672L288.631 94.0639L303.772 115.738C305.41 117.022 306.728 118.666 307.624 120.543C308.521 122.42 308.971 124.479 308.94 126.559C308.909 128.638 308.398 130.683 307.446 132.532C306.494 134.382 305.127 135.986 303.452 137.22L273.027 160.437C272.338 160.946 271.504 161.221 270.647 161.221Z"
              fill="#CCCCCC"/>
        <path d="M239.848 50.6574V39.8335L259.177 31.3955L277.607 39.8335V50.6574C277.607 51.1285 277.42 51.5804 277.086 51.9135C276.753 52.2467 276.301 52.4338 275.83 52.4338H241.625C241.154 52.4338 240.702 52.2467 240.369 51.9135C240.035 51.5804 239.848 51.1285 239.848 50.6574Z"
              fill="#2F2E41"/>
        <path d="M258.289 24.7808C255.447 15.6868 261.416 5.26468 270.24 1.66505C279.063 -1.93458 289.62 0.581673 297.065 6.5288C304.51 12.4759 309.13 21.3836 311.577 30.5915C314.025 39.7994 314.489 49.401 314.941 58.9178C325.782 60.9086 333.157 73.7636 329.401 84.1237C325.646 94.4839 311.746 99.6308 302.146 94.2159C292.546 88.8009 289.766 74.2448 296.694 65.6743C299.972 61.619 301.804 56.5861 301.898 51.3728C301.992 46.1595 300.344 41.0638 297.214 36.8928C294.085 32.7217 289.652 29.7138 284.62 28.3453C279.587 26.9769 274.242 27.3262 269.43 29.3379C264.087 31.5716 257.383 25.7678 258.289 24.7808Z"
              fill="#2F2E41"/>
        <path d="M136.477 89.7829C123.498 89.6977 110.68 86.8913 98.8532 81.5449C98.1492 81.2312 97.5516 80.7195 97.1333 80.0723C96.715 79.4251 96.494 78.6702 96.4972 77.8996V45.5528C96.4984 44.4931 96.92 43.4771 97.6695 42.7278C98.419 41.9785 99.4352 41.557 100.495 41.5558H172.459C173.519 41.557 174.535 41.9785 175.285 42.7278C176.034 43.4772 176.456 44.4931 176.457 45.5528V77.8997C176.46 78.6703 176.239 79.4251 175.821 80.0723C175.402 80.7196 174.805 81.2312 174.101 81.5449C162.274 86.8913 149.457 89.6978 136.477 89.7829Z"
              fill="#EEE066"/>
        <path d="M136.467 63.5781C135.934 63.5785 135.406 63.4724 134.914 63.2658L77.8474 39.1956C77.1115 38.8852 76.4855 38.3616 76.05 37.6922C75.6145 37.0228 75.3896 36.2384 75.4042 35.44C75.4189 34.6416 75.6724 33.8659 76.1321 33.2129C76.5918 32.5599 77.2366 32.0596 77.9834 31.7764L135.05 10.1327C135.97 9.78247 136.986 9.78463 137.904 10.1387L194.206 31.7824C194.948 32.0679 195.589 32.5684 196.045 33.2198C196.502 33.8712 196.753 34.644 196.768 35.4392C196.783 36.2345 196.56 37.016 196.128 37.6838C195.696 38.3517 195.074 38.8755 194.343 39.1882L138.04 63.258C137.543 63.4697 137.008 63.5785 136.467 63.5781Z"
              fill="#EEE066"/>
        <path d="M103.161 83.7458C106.105 83.7458 108.491 81.3598 108.491 78.4165C108.491 75.4733 106.105 73.0873 103.161 73.0873C100.217 73.0873 97.83 75.4733 97.83 78.4165C97.83 81.3598 100.217 83.7458 103.161 83.7458Z"
              fill="#3F3D56"/>
        <path opacity="0.2"
              d="M194.537 35.7716L138.234 59.8414C137.795 60.0291 137.323 60.1264 136.845 60.1275C136.368 60.1287 135.895 60.0337 135.455 59.8482L78.3892 35.7787C77.6725 35.4836 77.0746 34.9582 76.69 34.2855C76.4383 34.7217 76.2824 35.2065 76.2325 35.7076C76.1827 36.2087 76.24 36.7146 76.4007 37.1919C76.5614 37.6691 76.8218 38.1067 77.1647 38.4756C77.5075 38.8445 77.9249 39.1363 78.3892 39.3315L135.455 63.401C135.895 63.5865 136.368 63.6815 136.845 63.6804C137.323 63.6792 137.795 63.5819 138.234 63.3943L194.537 39.3245C194.999 39.1275 195.414 38.8348 195.754 38.4657C196.095 38.0967 196.353 37.6596 196.512 37.1834C196.671 36.7072 196.728 36.2027 196.677 35.7031C196.627 35.2036 196.471 34.7204 196.22 34.2855C195.839 34.9528 195.247 35.4752 194.537 35.7716Z"
              fill="black"/>
        <path d="M103.609 78.3957C103.844 78.3957 104.07 78.3022 104.237 78.1356C104.403 77.969 104.497 77.7431 104.497 77.5075V47.7867L133.799 37.1147C134.034 37.1182 134.262 37.028 134.431 36.8639C134.6 36.6999 134.697 36.4753 134.701 36.2398C134.704 36.0042 134.614 35.7769 134.45 35.6078C134.286 35.4388 134.061 35.3418 133.825 35.3383L104.523 46.0103C104.288 46.0049 104.053 46.0474 103.834 46.1352C103.615 46.223 103.417 46.3543 103.25 46.5212C103.082 46.6861 102.948 46.883 102.857 47.1003C102.766 47.3177 102.719 47.5511 102.72 47.7867V77.5075C102.72 77.7431 102.814 77.969 102.98 78.1356C103.147 78.3022 103.373 78.3957 103.609 78.3957Z"
              fill="#3F3D56"/>
    </g>
    <defs>
        <clipPath id="clip0_6_312">
            <rect width="661" height="479" fill="white"/>
        </clipPath>
    </defs>
</svg>
